<?xml version="1.0" encoding="UTF-8" standalone="no"?>
<!-- Created with Inkscape (http://www.inkscape.org/) -->

<svg
   version="1.1"
   id="svg1"
   width="1062.9146"
   height="441.12759"
   viewBox="0 0 1062.9146 441.12759"
   sodipodi:docname="AdobeStock_553038337.svg"
   inkscape:version="1.4.3 (0d15f75, 2025-12-25)"
   xmlns:inkscape="http://www.inkscape.org/namespaces/inkscape"
   xmlns:sodipodi="http://sodipodi.sourceforge.net/DTD/sodipodi-0.dtd"
   xmlns="http://www.w3.org/2000/svg"
   xmlns:svg="http://www.w3.org/2000/svg">
  <defs
     id="defs1" />
  <sodipodi:namedview
     id="namedview1"
     pagecolor="#ffffff"
     bordercolor="#000000"
     borderopacity="0.25"
     inkscape:showpageshadow="2"
     inkscape:pageopacity="0.0"
     inkscape:pagecheckerboard="0"
     inkscape:deskcolor="#d1d1d1"
     inkscape:zoom="0.94884689"
     inkscape:cx="591.24397"
     inkscape:cy="339.88624"
     inkscape:window-width="1728"
     inkscape:window-height="1084"
     inkscape:window-x="546"
     inkscape:window-y="1473"
     inkscape:window-maximized="0"
     inkscape:current-layer="g1">
    <inkscape:page
       x="0"
       y="0"
       inkscape:label="1"
       id="page1"
       width="1062.9146"
       height="441.12759"
       margin="0"
       bleed="0" />
  </sodipodi:namedview>
  <g
     id="g1"
     inkscape:groupmode="layer"
     inkscape:label="1"
     transform="translate(-36.311951,-6.7651219)">
    <g
       id="g31"
       transform="translate(4.2156437,-3.1617286)">
      <path
         id="path2"
         d="m 1030.0151,429.80284 c -39.65867,0.0813 -904.28264,0 -960.589309,-0.12133 40.143999,-34.352 143.766659,-125.74 155.230659,-136.02933 6.88667,-4.33467 13.81334,-8.66934 20.74,-12.96267 l 15.35334,-32.65067 34.18933,-19.64666 14.38,-17.37867 84.74533,-76.84533 22.968,17.94533 c 0.16267,-0.20266 0.36533,-0.364 0.52667,-0.56666 3.36266,-3.524 32.61066,-34.352 43.95333,-46.34267 11.09866,-5.509332 22.15733,-11.058665 33.25733,-16.607998 7.12933,0.121333 14.25867,0.202667 21.38933,0.324 l 53.876,-67.487998 7.576,-4.861334 c 0,-0.04 10.36933,-6.6439995 10.36933,-6.6439995 l 48.12534,72.5119985 23.69733,7.210666 58.9,77.533335 15.79866,2.876 52.41867,77.57466 28.72133,-2.14667 123.512,104.87734 7.16933,20.09333 z"
         style="fill:#585c99;fill-opacity:1;fill-rule:nonzero;stroke:none;stroke-width:1.33333" />
      <path
         id="path3"
         d="M 1030.015,429.80298 H 837.15234 c 0,0.0813 -20.78133,-73.48266 -20.78133,-73.48266 l -25.84534,-22.03734 -10.532,-16.28533 -57.48266,-42.12933 -3.848,-13.408 -29.652,-22.968 -27.78933,-34.47333 -13.368,9.56 c -2.02534,-2.67334 -4.01067,-5.348 -6.036,-8.02134 l -23.252,26.97867 c 0.364,-2.552 0.76933,-5.104 1.13333,-7.656 l -40.832,33.25866 c 10.73467,-16.64933 21.50933,-33.25866 32.28533,-49.86666 3.96934,-9.236 7.98,-18.432 11.94934,-27.668 -1.336,-1.78267 -2.632,-3.56533 -3.96934,-5.30667 -0.324,-3.848 -2.14666,-24.30533 -2.75466,-30.70533 -5.388,2.228 -10.77467,4.456 -16.16267,6.64267 2.876,-4.57734 5.712,-9.15467 8.54667,-13.772 -7.656,-4.416 -23.77867,-13.69334 -24.14267,-13.89467 L 602.36168,54.689656 579.83901,37.432323 c -1.41867,-8.06 -2.10667,-14.906666 -2.228,-20.861333 0,-0.04 10.36933,-6.6439995 10.36933,-6.6439995 l 48.12534,72.5119985 23.69733,7.210666 58.9,77.533335 15.79866,2.876 52.37867,77.57466 28.76133,-2.14667 123.512,104.87734 7.16933,20.09333 z"
         style="fill:#2c2d63;fill-opacity:1;fill-rule:nonzero;stroke:none;stroke-width:1.33333" />
      <path
         id="path4"
         d="m 543.43724,101.59898 -19.12,16.244 -11.54533,20.17333 0.52666,7.252 -20.13333,20.49734 33.54133,-13.652 3.07867,-6.48134 0.284,-6.684 -1.944,-13.408 z"
         style="fill:#434880;fill-opacity:1;fill-rule:nonzero;stroke:none;stroke-width:1.33333" />
      <path
         id="path5"
         d="m 736.27604,172.73284 -18.55333,1.62 -17.216,-13.368 -19.20134,-11.504 -12.39599,-28.76133 -10.572,-9.52 -9.52,-5.752 h -18.22934 l -17.216,21.996 -18.22933,-8.628 -20.092,13.44933 -22.03733,-4.82133 -22.968,11.50533 -1.904,-13.40933 13.48933,-22.40133 -17.33866,14.70533 -11.504,20.17333 0.48666,7.292 -20.09333,20.456 -23.576,3.60533 -13.328,21.34934 1.45867,-24.22534 22.80666,-19.93066 24.224,-39.45467 -30.46266,17.05333 -15.636,7.17067 -16.73067,12.436 -14.62267,-2.71467 34.18934,-35.84933 33.25733,-16.609331 21.38933,0.324 53.876,-67.487999 17.94533,-11.5039993 48.12534,72.5106653 23.69733,7.210666 58.9,77.534668 z"
         style="fill:#e3e9f7;fill-opacity:1;fill-rule:nonzero;stroke:none;stroke-width:1.33333" />
      <path
         id="path6"
         d="m 558.53111,157.14084 c 0,0 4.65867,-5.02267 5.752,-6.80533 1.05333,-1.82267 6.644,-7.73734 7.53467,-7.576 0.892,0.20266 3.60533,1.824 3.60533,1.824 0,0 -1.98533,6.27866 -2.51067,7.16933 -0.568,0.892 -14.38133,5.388 -14.38133,5.388"
         style="fill:#e3e9f7;fill-opacity:1;fill-rule:nonzero;stroke:none;stroke-width:1.33333" />
      <path
         id="path7"
         d="m 513.28258,199.15271 c 0,0 11.14,-11.504 12.92267,-12.92267 1.78266,-1.45866 1.78266,-13.65066 1.78266,-13.65066 l 10.41067,-7.9 2.876,11.50533 -9.68133,13.28667 z"
         style="fill:#e3e9f7;fill-opacity:1;fill-rule:nonzero;stroke:none;stroke-width:1.33333" />
      <path
         id="path8"
         d="m 586.31191,206.37964 c 0,0 -2.512,-10.41067 -2.512,-12.19333 0,-1.82267 6.80533,-14.38 6.80533,-14.38 l 1.824,-12.92267 7.89867,-10.776 5.388,2.14667 -4.33467,11.86933 c 0,0 -0.89066,12.396 -1.05333,13.288 -0.20267,0.89067 -5.388,6.44 -6.84533,8.26267 -1.41867,1.78266 -7.17067,14.70533 -7.17067,14.70533"
         style="fill:#e3e9f7;fill-opacity:1;fill-rule:nonzero;stroke:none;stroke-width:1.33333" />
      <path
         id="path9"
         d="m 636.76631,113.45204 14.70533,8.50667 4.65734,8.628 13.652,11.62666 -0.972,14.908 -6.60267,-13.936 -9.76267,-6.84533 -6.07733,-13.20667 z"
         style="fill:#bac8ef;fill-opacity:1;fill-rule:nonzero;stroke:none;stroke-width:1.33333" />
      <path
         id="path10"
         d="m 736.27618,172.73284 0.364,6.44133 -8.14133,-5.50933 -8.62934,3.60533 -19.36266,-16.28533 -19.20134,-11.504 -12.39599,-28.76133 -10.572,-9.52 -9.52,-5.752 h -18.22934 l -17.216,21.996 -18.22933,-8.628 -9.52,6.4 -1.012,-0.648 17.74267,-69.877334 -22.52267,-17.257333 8.14133,-27.5053323 48.12534,72.5106653 23.69733,7.210666 58.9,77.534668 15.79866,2.876 z"
         style="fill:#bac8ef;fill-opacity:1;fill-rule:nonzero;stroke:none;stroke-width:1.33333" />
      <path
         id="path11"
         d="m 630.45898,132.49924 3.44267,8.99333 c 0,0 10.736,5.144 11.424,5.752 0.648,0.56667 4.65866,11.01867 4.65866,11.01867 l -7.89866,-7.94 -12.47734,-3.808 -1.296,-7.73733 z"
         style="fill:#bac8ef;fill-opacity:1;fill-rule:nonzero;stroke:none;stroke-width:1.33333" />
      <path
         id="path12"
         d="m 582.18804,292.39231 -11.424,13.408 c -4.09067,7.21067 -8.14133,14.38133 -12.23333,21.55067 l -28.72134,15.06933 -7.16933,15.79867 -17.25733,15.79866 -24.91333,55.7 c -0.85067,0.12133 -1.70134,0.16267 -2.552,0.284 h -70.64667 c 3.72667,-13.73333 7.45333,-27.42533 11.22,-41.11733 l 7.65733,-6.23734 c 0.648,-4.61866 1.296,-9.23733 1.90267,-13.85466 l 10.53333,-11.99067 19.64667,-38.808 c -4.456,1.58 -8.912,3.2 -13.328,4.78 l -24.224,21.87467 -22.80667,33.21733 10.452,-35.60666 20.90267,-28.964 0.24267,-12.51734 -9.52,-23.94133 -14.016,5.10533 c 2.876,-3.64666 5.712,-7.292 8.548,-10.93866 l -5.104,-14.744 c -3.808,2.22666 -7.65734,4.45466 -11.50534,6.68266 l -35.16133,27.992 27.1,-34.18933 c 4.90133,-4.78 9.844,-9.6 14.78533,-14.38 3.12,-5.87467 12.72,-23.73866 14.38134,-26.81733 l -5.752,-23.94133 -15.35334,-40.22534 -4.09066,-17.01333 0.28266,-0.20267 22.96934,17.94534 0.52666,-0.56667 c 0.08,-0.0813 15.312,38.604 15.312,38.604 l 51.00134,33.056 c 6.684,1.70133 13.368,3.36266 20.092,5.02266 8.83066,6.23867 17.70266,12.43734 26.53333,18.67467 l 16.04133,17.46 c 1.904,2.99733 3.808,5.99467 5.712,9.03333 7.372,3.36267 14.704,6.76534 22.07733,10.168 2.63334,2.916 5.22534,5.87334 7.85867,8.83067"
         style="fill:#434880;fill-opacity:1;fill-rule:nonzero;stroke:none;stroke-width:1.33333" />
      <path
         id="path13"
         d="m 148.47924,412.02764 29.936,-34.18933 23.252,-4.78 40.388,-39.416 45.61333,-33.824 -36.58,38.564 -24.71067,37.552 -17.49999,9.11466 -13.368,31.59734 z"
         style="fill:#434880;fill-opacity:1;fill-rule:nonzero;stroke:none;stroke-width:1.33333" />
      <path
         id="path14"
         d="m 418.97764,215.55071 -4.98267,9.276 -22.80666,-4.78 -19.404,-19.808 6.76533,-17.41867 -27.87066,24.66934 -7.61467,-4.416 -16.528,11.50533 -31.59733,13.81333 14.38133,-17.37866 84.46133,-76.64267 4.09067,17.01333 15.35333,40.22534 z"
         style="fill:#e3e9f7;fill-opacity:1;fill-rule:nonzero;stroke:none;stroke-width:1.33333" />
      <path
         id="path15"
         d="m 288.49044,268.45964 10.04667,-12.92267 14.38,-9.884 c 0,0 5.388,-12.396 7.17066,-12.396 h 7.89867 l -5.752,4.33467 -2.876,10.04667 -11.82933,7.89866 -11.868,14.016 z"
         style="fill:#e3e9f7;fill-opacity:1;fill-rule:nonzero;stroke:none;stroke-width:1.33333" />
      <path
         id="path16"
         d="m 330.50631,255.17258 11.14,-22.644 11.14,-5.348 15.79867,-11.86933 7.53466,-0.364 -3.24133,7.98 -9.68133,7.81866 -3.60534,7.16934 -13.28666,6.11733 z"
         style="fill:#e3e9f7;fill-opacity:1;fill-rule:nonzero;stroke:none;stroke-width:1.33333" />
      <path
         id="path17"
         d="m 256.03844,353.65804 14.54267,-23.292 20.416,-14.70533 21.83466,-5.22534 25.03467,-18.95866 -2.71334,19.444 -17.58133,9.96533 -24.67066,15.67733 -18.06667,5.712 z"
         style="fill:#e3e9f7;fill-opacity:1;fill-rule:nonzero;stroke:none;stroke-width:1.33333" />
      <path
         id="path18"
         d="m 170.54031,356.76111 11.66667,-4.05067 14.25866,2.02534 6.644,3.484 2.38934,4.456 -15.676,-3.32267 -25.68267,4.132 z"
         style="fill:#e3e9f7;fill-opacity:1;fill-rule:nonzero;stroke:none;stroke-width:1.33333" />
      <path
         id="path19"
         d="m 530.50284,246.90484 -13.57067,-3.28133 -15.19066,-6.968 3.11866,8.14266 -13.124,0.68934 -0.77066,8.264 5.712,10.77466 -13.93467,-11.424 -11.1,-15.55466 -19.32266,-7.252 -20.25467,-15.19067 0.64933,11.424 4.45467,13.89467 -13.65067,-13.61067 -9.52,-1.98533 4.98267,-9.276 -5.752,-23.94134 -15.35333,-40.22533 -4.09067,-17.01333 0.28267,-0.20267 22.96933,17.94534 0.60667,-0.648 15.232,38.68533 51.00133,33.056 20.092,5.02266 z"
         style="fill:#bac8ef;fill-opacity:1;fill-rule:nonzero;stroke:none;stroke-width:1.33333" />
      <path
         id="path20"
         d="m 452.89578,239.15138 4.86133,1.66133 5.83334,7.57467 -3.808,3.808 -7.81867,-3.808 -6.684,-2.34933 5.388,-3.808 -2.268,-3.808 z"
         style="fill:#bac8ef;fill-opacity:1;fill-rule:nonzero;stroke:none;stroke-width:1.33333" />
      <path
         id="path21"
         d="m 722.26804,391.23818 c -0.324,0.81067 -0.688,1.62 -1.01333,2.47067 l -2.592,6.19866 c -1.45867,4.172 -2.876,9.236 -3.808,14.988 -0.89067,5.50934 -1.21467,10.61334 -1.17467,15.10934 0,0 -229.88799,-0.20267 -233.21066,-0.324 l 24.91333,-55.65867 17.25733,-15.79867 7.16934,-15.79866 28.72133,-15.06934 12.23333,-21.55066 c 3.808,-4.416 7.616,-8.872 11.424,-13.408 9.68134,-11.58667 19.03867,-23.05067 28.032,-34.43333 l 5.752,-5.99467 c 3.07867,-5.59067 6.11734,-11.18133 9.11467,-16.73067 l 22.76667,-20.66 c 3.808,-2.75466 7.616,-5.428 11.46399,-8.18266 1.82267,6.52266 3.64534,13.12533 5.50934,19.688 l 9.31733,19.404 v 30.13866 l 6.48133,30.17867 c 2.876,1.70133 5.752,3.36267 8.628,5.02267 l 9.31734,8.62933 v 12.23333 c 3.28133,2.916 6.56266,5.87333 9.84266,8.79067 1.216,1.256 8.548,8.79066 10.97867,11.30133 -1.256,5.388 -2.512,10.73467 -3.72667,16.12267 -0.0413,0.0813 -3.444,14.74533 -3.444,14.74533 z"
         style="fill:#676da5;fill-opacity:1;fill-rule:nonzero;stroke:none;stroke-width:1.33333" />
      <path
         id="path22"
         d="M 911.04004,429.92444 H 712.54671 c 1.13333,-11.748 3.80667,-23.94133 8.70933,-36.21467 0.324,-0.85066 0.648,-1.66133 1.012,-2.472 l -10.04666,-8.58666 c -3.76667,2.06533 -7.53467,4.13066 -11.30133,6.15733 4.90133,-6.928 9.76266,-13.89467 14.70533,-20.82267 1.25466,-5.46799 2.51066,-10.81599 3.76666,-16.20266 -6.15733,3.48267 -12.31466,6.96667 -18.47199,10.41067 3.68666,-5.95467 7.292,-12.072 11.09999,-17.98667 0.08,-0.12133 0.12134,-0.20267 0.20134,-0.324 -1.25467,-1.13467 -10.36933,-9.276 -13.65067,-12.19333 v -12.23334 c -1.70133,-1.58 -3.40266,-3.16 -5.14533,-4.74 l -28.59867,26.12934 c 0.972,-3.03867 1.904,-6.036 2.876,-9.03467 l -23.77866,19.93067 35.60666,-50.92 c -1.78133,-8.38534 -3.564,-16.77067 -5.38666,-25.196 v -30.13867 l -9.31734,-19.404 c -1.864,-6.56266 -3.68666,-13.16533 -5.50933,-19.68666 0.648,-0.48667 1.256,-0.932 1.904,-1.37734 l 27.78933,34.472 29.652,22.96933 3.848,13.408 57.48267,42.12934 10.532,16.28533 25.84533,22.036 31.59733,16.28533 z"
         style="fill:#434880;fill-opacity:1;fill-rule:nonzero;stroke:none;stroke-width:1.33333" />
      <path
         id="path23"
         d="m 616.70204,319.08778 -10.04667,54.93067 -16.52666,12.75999 -3.56534,18.148 c -1.01333,8.38534 -2.06533,16.73067 -3.11866,25.116 h -61.048 l 26.088,-37.34933 c 0,0 9.68133,-3.56533 12.23333,-5.024 2.472,-1.41733 15.02933,-16.892 15.02933,-18.67466 0,-1.78134 19.404,-7.89867 19.404,-7.89867 z"
         style="fill:#434880;fill-opacity:1;fill-rule:nonzero;stroke:none;stroke-width:1.33333" />
      <path
         id="path24"
         d="m 691.49791,241.40364 -12.67867,9.844 -4.65866,-0.932 v -4.82 l -9.35867,-19.404 -3.564,-21.06533 27.748,34.47333 z"
         style="fill:#bac8ef;fill-opacity:1;fill-rule:nonzero;stroke:none;stroke-width:1.33333" />
      <path
         id="path25"
         d="m 674.14338,245.48698 v 4.86133 l -10.04667,-1.98533 -10.41066,10.04667 -30.544,6.48133 3.68666,-12.88267 -23.25199,14.3 12.39599,-14.34 c 3.03734,-5.59066 6.116,-11.18 9.11467,-16.73066 l 22.76533,-20.65867 13.368,-9.56 3.60534,21.064 z"
         style="fill:#e3e9f7;fill-opacity:1;fill-rule:nonzero;stroke:none;stroke-width:1.33333" />
      <path
         id="path26"
         d="m 32.096308,451.03778 37.349332,-40.388 62.1,-28.964 59.99466,15.31333 17.216,-12.92266 38.76667,-2.876 23.00933,-5.712 81.868,22.968 50.272,25.84533 56.024,-19.404 37.34933,-2.63333 12.19333,2.63333 23.00934,13.652 c 0,0 25.84399,-2.14667 28.71999,-1.41867 2.87734,0.72934 30.504,0.36534 33.016,0.72934 2.552,0.324 59.628,-14.38 62.50534,-14.38 2.876,0 38.76666,-1.216 38.76666,-1.216 l 11.504,2.63333 17.21733,7.21067 25.88534,-5.752 33.01466,-5.752 41.68267,-12.92267 c 0,0 22.24,0.364 24.38666,0.72933 2.14667,0.324 38.07867,0 38.07867,0 l 43.83067,12.92267 27.99199,-2.87733 43.83072,-8.628 93.3319,61.20933 z"
         style="fill:#506739;fill-opacity:1;fill-rule:nonzero;stroke:none;stroke-width:1.33333" />
      <path
         id="path27"
         d="m 356.84471,400.74978 -37.836,5.63067 -34.18933,-3.16 c -4.73867,2.71466 -10.00533,6.11733 -15.51467,10.452 -4.78,3.808 -8.912,7.616 -12.35466,11.14 l -37.14667,8.79066 c 0,0 -20.82267,-10.412 -22.40133,-10.85733 -1.54,-0.44533 -21.51067,-1.82267 -21.51067,-1.82267 l -14.584,-11.34266 -13.93466,-8.264 -15.19067,-19.484 c 19.80933,5.06266 39.57733,10.168 59.34533,15.19066 l 17.216,-12.92266 38.808,-2.876 22.96933,-5.752 78.344,21.956 c 0.04,0 7.98,3.32133 7.98,3.32133"
         style="fill:#344e31;fill-opacity:1;fill-rule:nonzero;stroke:none;stroke-width:1.33333" />
      <path
         id="path28"
         d="m 531.24418,418.56151 -12.23333,8.264 -27.708,6.80533 -21.22667,5.996 -26.12933,0.404 23.77866,-6.4 21.916,-10.168 21.26667,-4.73866 11.14,-5.632 z"
         style="fill:#344e31;fill-opacity:1;fill-rule:nonzero;stroke:none;stroke-width:1.33333" />
      <path
         id="path29"
         d="m 672.88778,410.18018 -17.54,10.97733 8.06133,9.56134 -16.60933,6.03466 -37.552,-0.44533 -21.956,4.86133 -0.60666,-4.416 13.57066,-13.28666 -2.71466,-6.4 c 14.01599,-3.03867 55.49733,-13.61067 57.92799,-13.61067 1.70134,0 14.50267,-0.40533 24.91334,-0.77067 z"
         style="fill:#344e31;fill-opacity:1;fill-rule:nonzero;stroke:none;stroke-width:1.33333" />
      <path
         id="path30"
         d="m 1028.8082,407.58778 -9.6,5.67067 -9.9653,13.08533 -37.0667,5.18533 -22.80666,-2.552 -24.18267,14.94667 -6.644,7.13067 h -102.852 c -3.92933,-3.36267 -7.41333,-6.19867 -7.9,-6.19867 -1.13333,0 -37.99733,-6.15733 -37.99733,-6.15733 l 12.84133,-12.35467 27.54667,-2.39067 27.54533,8.548 h 39.90133 l 2.26934,-6.27866 -36.45867,-13.936 17.58133,-8.264 23.292,-8.06134 4.61867,-6.684 c 0.04,0 40.91333,12.032 40.91333,12.032 l 27.992,-2.876 43.8307,-8.588 z"
         style="fill:#344e31;fill-opacity:1;fill-rule:nonzero;stroke:none;stroke-width:1.33333" />
      <path
         id="path31"
         d="m 974.66298,407.70938 -17.58133,-7.616 c 0,0 -27.30267,1.54 -28.51734,1.98533 -1.17466,0.40534 -15.39333,-8.66933 -15.39333,-8.66933 l -23.45466,4.7 13.97466,-15.11067 32.04267,4.25334 27.91066,10.24933 z"
         style="fill:#344e31;fill-opacity:1;fill-rule:nonzero;stroke:none;stroke-width:1.33333" />
    </g>
  </g>
</svg>
